<svg width="30" height="30" viewBox="0 0 30 30" fill="none" xmlns="http://www.w3.org/2000/svg">
<g clip-path="url(#clip0_4:54)">
<path d="M1.10846 20.5781L7.46589 17.8523C8.21471 17.5282 9.09303 17.7468 9.60163 18.3785L12.185 21.532C16.2426 19.5398 19.5385 16.2404 21.5307 12.1863L18.3778 9.60585C17.7479 9.09134 17.5335 8.21776 17.852 7.46893L20.5772 1.11151C20.9342 0.296473 21.8135 -0.149426 22.6742 0.0503788L28.5805 1.41268C29.4155 1.60311 29.9996 2.33846 29.9996 3.19745C29.9996 17.9807 17.9762 30.0041 3.193 30.0041C2.33343 30.0041 1.60042 29.42 1.40882 28.5849L0.0465109 22.6787C-0.150774 21.8203 0.293894 20.9297 1.10846 20.5781Z" fill="#E3CEF0"/>
</g>
<defs>
<clipPath id="clip0_4:54">
<rect width="30" height="30" fill="white"/>
</clipPath>
</defs>
</svg>
